 0
SECTION
 2
ENTITIES
  0
3DFACE
 8
Layer0
10
2.38507254321522
20
0.0
30
2.88670259245807
11
2.13507254321522
21
0.0
31
0.00670259245807123
12
2.38507254321522
22
0.0
32
0.00670259245807123
13
2.38507254321522
23
0.0
33
0.00670259245807123
70
1
  0
3DFACE
 8
Layer0
10
2.13507254321522
20
0.0
30
0.00670259245807123
11
2.38507254321522
21
0.0
31
2.88670259245807
12
2.13507254321522
22
0.0
32
2.41
13
2.13507254321522
23
0.0
33
2.41
70
3
  0
3DFACE
 8
Layer0
10
2.13507254321522
20
0.0
30
2.41
11
2.38507254321522
21
0.0
31
2.88670259245807
12
0.425072543215221
22
0.0
32
2.41
13
0.425072543215221
23
0.0
33
2.41
70
3
  0
3DFACE
 8
Layer0
10
0.425072543215221
20
0.0
30
2.41
11
2.38507254321522
21
0.0
31
2.88670259245807
12
0.0
22
0.0
32
2.41
13
0.0
23
0.0
33
2.41
70
15
  0
3DFACE
 8
Layer0
10
0.0
20
0.0
30
2.41
11
2.38507254321522
21
0.0
31
2.88670259245807
12
-0.484927456784779
22
0.0
32
2.88670259245807
13
-0.484927456784779
23
0.0
33
2.88670259245807
70
3
  0
3DFACE
 8
Layer0
10
-0.484927456784779
20
0.0
30
2.88670259245807
11
2.38507254321522
21
0.0
31
2.88670259245807
12
-0.344927456784779
22
0.0
32
2.88670259245807
13
-0.344927456784779
23
0.0
33
2.88670259245807
70
13
  0
3DFACE
 8
Layer0
10
-0.484927456784779
20
0.0
30
2.88670259245807
11
-0.344927456784779
21
0.0
31
2.88670259245807
12
-0.344927456784779
22
0.0
32
4.27670259245807
13
-0.344927456784779
23
0.0
33
4.27670259245807
70
13
  0
3DFACE
 8
Layer0
10
-0.484927456784779
20
0.0
30
2.88670259245807
11
-0.344927456784779
21
0.0
31
4.27670259245807
12
-0.484927456784779
22
0.0
32
4.27670259245807
13
-0.484927456784779
23
0.0
33
4.27670259245807
70
1
  0
3DFACE
 8
Layer0
10
0.19694830791405
20
0.0
30
0.00670259245807123
11
0.0
21
0.0
31
2.41
12
0.0
22
0.0
32
0.0
13
0.0
23
0.0
33
0.0
70
1
  0
3DFACE
 8
Layer0
10
0.0
20
0.0
30
2.41
11
0.19694830791405
21
0.0
31
0.00670259245807123
12
0.425072543215221
22
0.0
32
2.41
13
0.425072543215221
23
0.0
33
2.41
70
13
  0
3DFACE
 8
Layer0
10
0.0
20
2.35
30
2.41
11
0.19694830791405
21
2.35
31
0.00670259245807123
12
0.0
22
2.35
32
0.0
13
0.0
23
2.35
33
0.0
70
1
  0
3DFACE
 8
Layer0
10
0.19694830791405
20
2.35
30
0.00670259245807123
11
0.0
21
2.35
31
2.41
12
0.425072543215221
22
2.35
32
2.41
13
0.425072543215221
23
2.35
33
2.41
70
3
  0
3DFACE
 8
Layer0
10
0.425072543215221
20
2.35
30
2.41
11
0.0
21
2.35
31
2.41
12
-0.484927456784779
22
2.35
32
2.88670259245807
13
-0.484927456784779
23
2.35
33
2.88670259245807
70
13
  0
3DFACE
 8
Layer0
10
0.425072543215221
20
2.35
30
2.41
11
-0.484927456784779
21
2.35
31
2.88670259245807
12
2.13507254321522
22
2.35
32
2.41
13
2.13507254321522
23
2.35
33
2.41
70
3
  0
3DFACE
 8
Layer0
10
-0.484927456784779
20
2.35
30
4.27670259245807
11
-0.344927456784779
21
2.35
31
2.88670259245807
12
-0.484927456784779
22
2.35
32
2.88670259245807
13
-0.484927456784779
23
2.35
33
2.88670259245807
70
3
  0
3DFACE
 8
Layer0
10
-0.344927456784779
20
2.35
30
2.88670259245807
11
-0.484927456784779
21
2.35
31
4.27670259245807
12
-0.344927456784779
22
2.35
32
4.27670259245807
13
-0.344927456784779
23
2.35
33
4.27670259245807
70
1
  0
3DFACE
 8
Layer0
10
2.13507254321522
20
2.35
30
2.41
11
2.38507254321522
21
2.35
31
0.00670259245807123
12
2.13507254321522
22
2.35
32
0.00670259245807123
13
2.13507254321522
23
2.35
33
0.00670259245807123
70
1
  0
3DFACE
 8
Layer0
10
2.38507254321522
20
2.35
30
0.00670259245807123
11
2.13507254321522
21
2.35
31
2.41
12
2.38507254321522
22
2.35
32
2.88670259245807
13
2.38507254321522
23
2.35
33
2.88670259245807
70
3
  0
3DFACE
 8
Layer0
10
2.38507254321522
20
2.35
30
2.88670259245807
11
2.13507254321522
21
2.35
31
2.41
12
-0.484927456784779
22
2.35
32
2.88670259245807
13
-0.484927456784779
23
2.35
33
2.88670259245807
70
15
  0
3DFACE
 8
Layer0
10
2.38507254321522
20
2.35
30
2.88670259245807
11
-0.484927456784779
21
2.35
31
2.88670259245807
12
-0.344927456784779
22
2.35
32
2.88670259245807
13
-0.344927456784779
23
2.35
33
2.88670259245807
70
3
  0
3DFACE
 8
Layer0
10
0.19694830791405
20
2.35
30
0.00670259245807123
11
0.0
21
0.0
31
0.0
12
0.0
22
2.35
32
0.0
13
0.0
23
2.35
33
0.0
70
1
  0
3DFACE
 8
Layer0
10
0.0
20
0.0
30
0.0
11
0.19694830791405
21
2.35
31
0.00670259245807123
12
0.19694830791405
22
0.0
32
0.00670259245807123
13
0.19694830791405
23
0.0
33
0.00670259245807123
70
1
  0
3DFACE
 8
Layer0
10
0.0
20
2.35
30
2.41
11
0.0
21
0.0
31
0.0
12
0.0
22
0.0
32
2.41
13
0.0
23
0.0
33
2.41
70
1
  0
3DFACE
 8
Layer0
10
0.0
20
0.0
30
0.0
11
0.0
21
2.35
31
2.41
12
0.0
22
2.35
32
0.0
13
0.0
23
2.35
33
0.0
70
1
  0
3DFACE
 8
Layer0
10
0.0
20
2.35
30
2.41
11
-0.484927456784779
21
0.0
31
2.88670259245807
12
-0.484927456784779
22
2.35
32
2.88670259245807
13
-0.484927456784779
23
2.35
33
2.88670259245807
70
1
  0
3DFACE
 8
Layer0
10
-0.484927456784779
20
0.0
30
2.88670259245807
11
0.0
21
2.35
31
2.41
12
0.0
22
0.0
32
2.41
13
0.0
23
0.0
33
2.41
70
1
  0
3DFACE
 8
Layer0
10
-0.484927456784779
20
2.35
30
4.27670259245807
11
-0.484927456784779
21
0.0
31
2.88670259245807
12
-0.484927456784779
22
0.0
32
4.27670259245807
13
-0.484927456784779
23
0.0
33
4.27670259245807
70
1
  0
3DFACE
 8
Layer0
10
-0.484927456784779
20
0.0
30
2.88670259245807
11
-0.484927456784779
21
2.35
31
4.27670259245807
12
-0.484927456784779
22
2.35
32
2.88670259245807
13
-0.484927456784779
23
2.35
33
2.88670259245807
70
1
  0
3DFACE
 8
Layer0
10
-0.344927456784779
20
0.0
30
4.27670259245807
11
-0.484927456784779
21
2.35
31
4.27670259245807
12
-0.484927456784779
22
0.0
32
4.27670259245807
13
-0.484927456784779
23
0.0
33
4.27670259245807
70
1
  0
3DFACE
 8
Layer0
10
-0.484927456784779
20
2.35
30
4.27670259245807
11
-0.344927456784779
21
0.0
31
4.27670259245807
12
-0.344927456784779
22
2.35
32
4.27670259245807
13
-0.344927456784779
23
2.35
33
4.27670259245807
70
1
  0
3DFACE
 8
Layer0
10
-0.344927456784779
20
2.35
30
2.88670259245807
11
-0.344927456784779
21
0.0
31
4.27670259245807
12
-0.344927456784779
22
0.0
32
2.88670259245807
13
-0.344927456784779
23
0.0
33
2.88670259245807
70
1
  0
3DFACE
 8
Layer0
10
-0.344927456784779
20
0.0
30
4.27670259245807
11
-0.344927456784779
21
2.35
31
2.88670259245807
12
-0.344927456784779
22
2.35
32
4.27670259245807
13
-0.344927456784779
23
2.35
33
4.27670259245807
70
1
  0
3DFACE
 8
Layer0
10
2.38507254321522
20
0.0
30
2.88670259245807
11
-0.344927456784779
21
2.35
31
2.88670259245807
12
-0.344927456784779
22
0.0
32
2.88670259245807
13
-0.344927456784779
23
0.0
33
2.88670259245807
70
1
  0
3DFACE
 8
Layer0
10
-0.344927456784779
20
2.35
30
2.88670259245807
11
2.38507254321522
21
0.0
31
2.88670259245807
12
2.38507254321522
22
2.35
32
2.88670259245807
13
2.38507254321522
23
2.35
33
2.88670259245807
70
1
  0
3DFACE
 8
Layer0
10
2.38507254321522
20
2.35
30
0.00670259245807123
11
2.38507254321522
21
0.0
31
2.88670259245807
12
2.38507254321522
22
0.0
32
0.00670259245807123
13
2.38507254321522
23
0.0
33
0.00670259245807123
70
1
  0
3DFACE
 8
Layer0
10
2.38507254321522
20
0.0
30
2.88670259245807
11
2.38507254321522
21
2.35
31
0.00670259245807123
12
2.38507254321522
22
1.73882317398809
32
2.10936316705538
13
2.38507254321522
23
1.73882317398809
33
2.10936316705538
70
15
  0
3DFACE
 8
Layer0
10
2.38507254321522
20
1.73882317398809
30
2.10936316705538
11
2.38507254321522
21
2.35
31
0.00670259245807123
12
2.38507254321522
22
1.95882317398809
32
2.10936316705538
13
2.38507254321522
23
1.95882317398809
33
2.10936316705538
70
3
  0
3DFACE
 8
Layer0
10
2.38507254321522
20
1.95882317398809
30
2.10936316705538
11
2.38507254321522
21
2.35
31
0.00670259245807123
12
2.38507254321522
22
1.95882317398809
32
2.46533064458036
13
2.38507254321522
23
1.95882317398809
33
2.46533064458036
70
3
  0
3DFACE
 8
Layer0
10
2.38507254321522
20
0.0
30
2.88670259245807
11
2.38507254321522
21
1.73882317398809
31
2.46533064458036
12
2.38507254321522
22
2.35
32
2.88670259245807
13
2.38507254321522
23
2.35
33
2.88670259245807
70
3
  0
3DFACE
 8
Layer0
10
2.38507254321522
20
1.73882317398809
30
2.46533064458036
11
2.38507254321522
21
0.0
31
2.88670259245807
12
2.38507254321522
22
1.73882317398809
32
2.10936316705538
13
2.38507254321522
23
1.73882317398809
33
2.10936316705538
70
3
  0
3DFACE
 8
Layer0
10
2.38507254321522
20
2.35
30
2.88670259245807
11
2.38507254321522
21
1.73882317398809
31
2.46533064458036
12
2.38507254321522
22
1.95882317398809
32
2.46533064458036
13
2.38507254321522
23
1.95882317398809
33
2.46533064458036
70
13
  0
3DFACE
 8
Layer0
10
2.38507254321522
20
2.35
30
2.88670259245807
11
2.38507254321522
21
1.95882317398809
31
2.46533064458036
12
2.38507254321522
22
2.35
32
0.00670259245807123
13
2.38507254321522
23
2.35
33
0.00670259245807123
70
3
  0
3DFACE
 8
Layer0
10
2.38507254321522
20
2.35
30
0.00670259245807123
11
2.13507254321522
21
0.0
31
0.00670259245807123
12
2.13507254321522
22
2.35
32
0.00670259245807123
13
2.13507254321522
23
2.35
33
0.00670259245807123
70
1
  0
3DFACE
 8
Layer0
10
2.13507254321522
20
0.0
30
0.00670259245807123
11
2.38507254321522
21
2.35
31
0.00670259245807123
12
2.38507254321522
22
0.0
32
0.00670259245807123
13
2.38507254321522
23
0.0
33
0.00670259245807123
70
1
  0
3DFACE
 8
Layer0
10
2.13507254321522
20
2.35
30
2.41
11
2.13507254321522
21
0.0
31
0.00670259245807123
12
2.13507254321522
22
0.0
32
2.41
13
2.13507254321522
23
0.0
33
2.41
70
1
  0
3DFACE
 8
Layer0
10
2.13507254321522
20
0.0
30
0.00670259245807123
11
2.13507254321522
21
2.35
31
2.41
12
2.13507254321522
22
2.35
32
0.00670259245807123
13
2.13507254321522
23
2.35
33
0.00670259245807123
70
1
  0
3DFACE
 8
Layer0
10
2.13507254321522
20
2.35
30
2.41
11
0.425072543215221
21
0.0
31
2.41
12
0.425072543215221
22
2.35
32
2.41
13
0.425072543215221
23
2.35
33
2.41
70
1
  0
3DFACE
 8
Layer0
10
0.425072543215221
20
0.0
30
2.41
11
2.13507254321522
21
2.35
31
2.41
12
2.13507254321522
22
0.0
32
2.41
13
2.13507254321522
23
0.0
33
2.41
70
1
  0
3DFACE
 8
Layer0
10
0.19694830791405
20
2.35
30
0.00670259245807123
11
0.425072543215221
21
0.0
31
2.41
12
0.19694830791405
22
0.0
32
0.00670259245807123
13
0.19694830791405
23
0.0
33
0.00670259245807123
70
1
  0
3DFACE
 8
Layer0
10
0.425072543215221
20
0.0
30
2.41
11
0.19694830791405
21
2.35
31
0.00670259245807123
12
0.425072543215221
22
2.35
32
2.41
13
0.425072543215221
23
2.35
33
2.41
70
1
  0
3DFACE
 8
Layer0
10
2.99507254321522
20
1.95882317398809
30
2.10936316705538
11
2.99507254321522
21
1.73882317398809
31
7.04533064458036
12
2.99507254321522
22
1.73882317398809
32
2.10936316705538
13
2.99507254321522
23
1.73882317398809
33
2.10936316705538
70
1
  0
3DFACE
 8
Layer0
10
2.99507254321522
20
1.73882317398809
30
7.04533064458036
11
2.99507254321522
21
1.95882317398809
31
2.10936316705538
12
2.99507254321522
22
1.95882317398809
32
7.04533064458036
13
2.99507254321522
23
1.95882317398809
33
7.04533064458036
70
1
  0
3DFACE
 8
Layer0
10
-0.484927456784779
20
1.95882317398809
30
7.04533064458036
11
2.69007254321522
21
1.95882317398809
31
6.70875896749948
12
-0.484927456784779
22
1.95882317398809
32
6.70875896749948
13
-0.484927456784779
23
1.95882317398809
33
6.70875896749948
70
1
  0
3DFACE
 8
Layer0
10
2.38507254321522
20
1.95882317398809
30
2.46533064458036
11
2.99507254321522
21
1.95882317398809
31
2.10936316705538
12
2.38507254321522
22
1.95882317398809
32
2.10936316705538
13
2.38507254321522
23
1.95882317398809
33
2.10936316705538
70
1
  0
3DFACE
 8
Layer0
10
2.99507254321522
20
1.95882317398809
30
2.10936316705538
11
2.38507254321522
21
1.95882317398809
31
2.46533064458036
12
2.69007254321522
22
1.95882317398809
32
2.46533064458036
13
2.69007254321522
23
1.95882317398809
33
2.46533064458036
70
13
  0
3DFACE
 8
Layer0
10
2.99507254321522
20
1.95882317398809
30
2.10936316705538
11
2.69007254321522
21
1.95882317398809
31
2.46533064458036
12
2.99507254321522
22
1.95882317398809
32
7.04533064458036
13
2.99507254321522
23
1.95882317398809
33
7.04533064458036
70
3
  0
3DFACE
 8
Layer0
10
2.99507254321522
20
1.95882317398809
30
7.04533064458036
11
2.69007254321522
21
1.95882317398809
31
2.46533064458036
12
2.69007254321522
22
1.95882317398809
32
6.70875896749948
13
2.69007254321522
23
1.95882317398809
33
6.70875896749948
70
13
  0
3DFACE
 8
Layer0
10
2.99507254321522
20
1.95882317398809
30
7.04533064458036
11
2.69007254321522
21
1.95882317398809
31
6.70875896749948
12
-0.484927456784779
22
1.95882317398809
32
7.04533064458036
13
-0.484927456784779
23
1.95882317398809
33
7.04533064458036
70
3
  0
3DFACE
 8
Layer0
10
2.99507254321522
20
1.73882317398809
30
2.10936316705538
11
2.69007254321522
21
1.73882317398809
31
2.46533064458036
12
2.38507254321522
22
1.73882317398809
32
2.10936316705538
13
2.38507254321522
23
1.73882317398809
33
2.10936316705538
70
3
  0
3DFACE
 8
Layer0
10
2.69007254321522
20
1.73882317398809
30
2.46533064458036
11
2.99507254321522
21
1.73882317398809
31
2.10936316705538
12
2.99507254321522
22
1.73882317398809
32
7.04533064458036
13
2.99507254321522
23
1.73882317398809
33
7.04533064458036
70
13
  0
3DFACE
 8
Layer0
10
2.69007254321522
20
1.73882317398809
30
2.46533064458036
11
2.99507254321522
21
1.73882317398809
31
7.04533064458036
12
2.69007254321522
22
1.73882317398809
32
6.70875896749948
13
2.69007254321522
23
1.73882317398809
33
6.70875896749948
70
3
  0
3DFACE
 8
Layer0
10
2.69007254321522
20
1.73882317398809
30
6.70875896749948
11
2.99507254321522
21
1.73882317398809
31
7.04533064458036
12
-0.484927456784779
22
1.73882317398809
32
6.70875896749948
13
-0.484927456784779
23
1.73882317398809
33
6.70875896749948
70
3
  0
3DFACE
 8
Layer0
10
-0.484927456784779
20
1.73882317398809
30
6.70875896749948
11
2.99507254321522
21
1.73882317398809
31
7.04533064458036
12
-0.484927456784779
22
1.73882317398809
32
7.04533064458036
13
-0.484927456784779
23
1.73882317398809
33
7.04533064458036
70
1
  0
3DFACE
 8
Layer0
10
2.38507254321522
20
1.73882317398809
30
2.46533064458036
11
2.38507254321522
21
1.73882317398809
31
2.10936316705538
12
2.69007254321522
22
1.73882317398809
32
2.46533064458036
13
2.69007254321522
23
1.73882317398809
33
2.46533064458036
70
2
  0
3DFACE
 8
Layer0
10
2.99507254321522
20
1.95882317398809
30
2.10936316705538
11
2.38507254321522
21
1.73882317398809
31
2.10936316705538
12
2.38507254321522
22
1.95882317398809
32
2.10936316705538
13
2.38507254321522
23
1.95882317398809
33
2.10936316705538
70
1
  0
3DFACE
 8
Layer0
10
2.38507254321522
20
1.73882317398809
30
2.10936316705538
11
2.99507254321522
21
1.95882317398809
31
2.10936316705538
12
2.99507254321522
22
1.73882317398809
32
2.10936316705538
13
2.99507254321522
23
1.73882317398809
33
2.10936316705538
70
1
  0
3DFACE
 8
Layer0
10
2.69007254321522
20
1.73882317398809
30
2.46533064458036
11
2.38507254321522
21
1.95882317398809
31
2.46533064458036
12
2.38507254321522
22
1.73882317398809
32
2.46533064458036
13
2.38507254321522
23
1.73882317398809
33
2.46533064458036
70
1
  0
3DFACE
 8
Layer0
10
2.38507254321522
20
1.95882317398809
30
2.46533064458036
11
2.69007254321522
21
1.73882317398809
31
2.46533064458036
12
2.69007254321522
22
1.95882317398809
32
2.46533064458036
13
2.69007254321522
23
1.95882317398809
33
2.46533064458036
70
1
  0
3DFACE
 8
Layer0
10
2.99507254321522
20
1.73882317398809
30
7.04533064458036
11
-0.484927456784779
21
1.95882317398809
31
7.04533064458036
12
-0.484927456784779
22
1.73882317398809
32
7.04533064458036
13
-0.484927456784779
23
1.73882317398809
33
7.04533064458036
70
1
  0
3DFACE
 8
Layer0
10
-0.484927456784779
20
1.95882317398809
30
7.04533064458036
11
2.99507254321522
21
1.73882317398809
31
7.04533064458036
12
2.99507254321522
22
1.95882317398809
32
7.04533064458036
13
2.99507254321522
23
1.95882317398809
33
7.04533064458036
70
1
  0
3DFACE
 8
Layer0
10
2.69007254321522
20
1.95882317398809
30
6.70875896749948
11
2.69007254321522
21
1.73882317398809
31
2.46533064458036
12
2.69007254321522
22
1.73882317398809
32
6.70875896749948
13
2.69007254321522
23
1.73882317398809
33
6.70875896749948
70
1
  0
3DFACE
 8
Layer0
10
2.69007254321522
20
1.73882317398809
30
2.46533064458036
11
2.69007254321522
21
1.95882317398809
31
6.70875896749948
12
2.69007254321522
22
1.95882317398809
32
2.46533064458036
13
2.69007254321522
23
1.95882317398809
33
2.46533064458036
70
1
  0
3DFACE
 8
Layer0
10
-0.484927456784779
20
1.95882317398809
30
7.04533064458036
11
-0.484927456784779
21
1.73882317398809
31
6.70875896749948
12
-0.484927456784779
22
1.73882317398809
32
7.04533064458036
13
-0.484927456784779
23
1.73882317398809
33
7.04533064458036
70
1
  0
3DFACE
 8
Layer0
10
-0.484927456784779
20
1.73882317398809
30
6.70875896749948
11
-0.484927456784779
21
1.95882317398809
31
7.04533064458036
12
-0.484927456784779
22
1.95882317398809
32
6.70875896749948
13
-0.484927456784779
23
1.95882317398809
33
6.70875896749948
70
1
  0
3DFACE
 8
Layer0
10
2.69007254321522
20
1.95882317398809
30
6.70875896749948
11
-0.484927456784779
21
1.73882317398809
31
6.70875896749948
12
-0.484927456784779
22
1.95882317398809
32
6.70875896749948
13
-0.484927456784779
23
1.95882317398809
33
6.70875896749948
70
1
  0
3DFACE
 8
Layer0
10
-0.484927456784779
20
1.73882317398809
30
6.70875896749948
11
2.69007254321522
21
1.95882317398809
31
6.70875896749948
12
2.69007254321522
22
1.73882317398809
32
6.70875896749948
13
2.69007254321522
23
1.73882317398809
33
6.70875896749948
70
1
 0
ENDSEC
 0
EOF
