 0
SECTION
 2
ENTITIES
  0
3DFACE
 8
[Color_A01]
10
1.42
20
1.82
30
0.0
11
0.0
21
0.0
31
0.0
12
0.0
22
1.82
32
0.0
13
0.0
23
1.82
33
0.0
70
1
  0
3DFACE
 8
[Color_A01]
10
0.0
20
0.0
30
0.0
11
1.42
21
1.82
31
0.0
12
1.42
22
0.0
32
0.0
13
1.42
23
0.0
33
0.0
70
1
  0
3DFACE
 8
[Color_005]
10
3.05123691303562
20
2.21702878629165
30
0.0
11
1.86123691303562
21
-0.0329712137083535
31
0.0
12
1.86123691303562
22
2.21702878629165
32
0.0
13
1.86123691303562
23
2.21702878629165
33
0.0
70
1
  0
3DFACE
 8
[Color_005]
10
1.86123691303562
20
-0.0329712137083535
30
0.0
11
3.05123691303562
21
2.21702878629165
31
0.0
12
3.05123691303562
22
-0.0329712137083535
32
0.0
13
3.05123691303562
23
-0.0329712137083535
33
0.0
70
1
  0
3DFACE
 8
[Color_C01]
10
4.77352315310637
20
1.03419766045404
30
0.0
11
3.80352315310637
21
0.0141976604540379
31
0.0
12
3.80352315310637
22
1.03419766045404
32
0.0
13
3.80352315310637
23
1.03419766045404
33
0.0
70
1
  0
3DFACE
 8
[Color_C01]
10
3.80352315310637
20
0.0141976604540379
30
0.0
11
4.77352315310637
21
1.03419766045404
31
0.0
12
4.77352315310637
22
0.0141976604540379
32
0.0
13
4.77352315310637
23
0.0141976604540379
33
0.0
70
1
  0
3DFACE
 8
[Color_C11]
10
6.69219730394509
20
1.12472880090212
30
0.0
11
5.80219730394509
21
-0.0752711990978761
31
0.0
12
5.80219730394509
22
1.12472880090212
32
0.0
13
5.80219730394509
23
1.12472880090212
33
0.0
70
1
  0
3DFACE
 8
[Color_C11]
10
5.80219730394509
20
-0.0752711990978761
30
0.0
11
6.69219730394509
21
1.12472880090212
31
0.0
12
6.69219730394509
22
-0.0752711990978761
32
0.0
13
6.69219730394509
23
-0.0752711990978761
33
0.0
70
1
  0
3DFACE
 8
[Color_D01]
10
9.77784575705593
20
1.93738378582349
30
0.0
11
8.09784575705593
21
0.137383785823489
31
0.0
12
8.09784575705593
22
1.93738378582349
32
0.0
13
8.09784575705593
23
1.93738378582349
33
0.0
70
1
  0
3DFACE
 8
[Color_D01]
10
8.09784575705593
20
0.137383785823489
30
0.0
11
9.77784575705593
21
1.93738378582349
31
0.0
12
9.77784575705593
22
0.137383785823489
32
0.0
13
9.77784575705593
23
0.137383785823489
33
0.0
70
1
  0
3DFACE
 8
[Color_C10]
10
4.66326040085395
20
3.98263810981787
30
0.0
11
2.48326040085395
21
2.82263810981787
31
0.0
12
2.48326040085395
22
3.98263810981787
32
0.0
13
2.48326040085395
23
3.98263810981787
33
0.0
70
1
  0
3DFACE
 8
[Color_C10]
10
2.48326040085395
20
2.82263810981787
30
0.0
11
4.66326040085395
21
3.98263810981787
31
0.0
12
4.66326040085395
22
2.82263810981787
32
0.0
13
4.66326040085395
23
2.82263810981787
33
0.0
70
1
  0
3DFACE
 8
[Color_C18]
10
7.14688725938327
20
3.71554572647879
30
0.0
11
5.19688725938328
21
2.38554572647879
31
0.0
12
5.19688725938328
22
3.71554572647879
32
0.0
13
5.19688725938328
23
3.71554572647879
33
0.0
70
1
  0
3DFACE
 8
[Color_C18]
10
5.19688725938328
20
2.38554572647879
30
0.0
11
7.14688725938327
21
3.71554572647879
31
0.0
12
7.14688725938327
22
2.38554572647879
32
0.0
13
7.14688725938327
23
2.38554572647879
33
0.0
70
1
  0
3DFACE
 8
[Color_A01]
10
1.42
20
0.0
30
2.7
11
0.0
21
1.82
31
2.7
12
0.0
22
0.0
32
2.7
13
0.0
23
0.0
33
2.7
70
1
  0
3DFACE
 8
[Color_A01]
10
0.0
20
1.82
30
2.7
11
1.42
21
0.0
31
2.7
12
1.42
22
1.82
32
2.7
13
1.42
23
1.82
33
2.7
70
1
  0
3DFACE
 8
[Color_A01]
10
1.42
20
0.0
30
2.7
11
0.0
21
0.0
31
0.0
12
1.42
22
0.0
32
0.0
13
1.42
23
0.0
33
0.0
70
1
  0
3DFACE
 8
[Color_A01]
10
0.0
20
0.0
30
0.0
11
1.42
21
0.0
31
2.7
12
0.0
22
0.0
32
2.7
13
0.0
23
0.0
33
2.7
70
1
  0
3DFACE
 8
[Color_A01]
10
0.0
20
1.82
30
2.7
11
0.0
21
0.0
31
0.0
12
0.0
22
0.0
32
2.7
13
0.0
23
0.0
33
2.7
70
1
  0
3DFACE
 8
[Color_A01]
10
0.0
20
0.0
30
0.0
11
0.0
21
1.82
31
2.7
12
0.0
22
1.82
32
0.0
13
0.0
23
1.82
33
0.0
70
1
  0
3DFACE
 8
[Color_A01]
10
0.0
20
1.82
30
2.7
11
1.42
21
1.82
31
0.0
12
0.0
22
1.82
32
0.0
13
0.0
23
1.82
33
0.0
70
1
  0
3DFACE
 8
[Color_A01]
10
1.42
20
1.82
30
0.0
11
0.0
21
1.82
31
2.7
12
1.42
22
1.82
32
2.7
13
1.42
23
1.82
33
2.7
70
1
  0
3DFACE
 8
[Color_A01]
10
1.42
20
1.82
30
0.0
11
1.42
21
0.0
31
2.7
12
1.42
22
0.0
32
0.0
13
1.42
23
0.0
33
0.0
70
1
  0
3DFACE
 8
[Color_A01]
10
1.42
20
0.0
30
2.7
11
1.42
21
1.82
31
0.0
12
1.42
22
1.82
32
2.7
13
1.42
23
1.82
33
2.7
70
1
  0
3DFACE
 8
[Color_005]
10
3.05123691303562
20
-0.0329712137083535
30
1.19
11
1.86123691303562
21
2.21702878629165
31
1.19
12
1.86123691303562
22
-0.0329712137083535
32
1.19
13
1.86123691303562
23
-0.0329712137083535
33
1.19
70
1
  0
3DFACE
 8
[Color_005]
10
1.86123691303562
20
2.21702878629165
30
1.19
11
3.05123691303562
21
-0.0329712137083535
31
1.19
12
3.05123691303562
22
2.21702878629165
32
1.19
13
3.05123691303562
23
2.21702878629165
33
1.19
70
1
  0
3DFACE
 8
[Color_005]
10
3.05123691303562
20
-0.0329712137083535
30
1.19
11
1.86123691303562
21
-0.0329712137083535
31
0.0
12
3.05123691303562
22
-0.0329712137083535
32
0.0
13
3.05123691303562
23
-0.0329712137083535
33
0.0
70
1
  0
3DFACE
 8
[Color_005]
10
1.86123691303562
20
-0.0329712137083535
30
0.0
11
3.05123691303562
21
-0.0329712137083535
31
1.19
12
1.86123691303562
22
-0.0329712137083535
32
1.19
13
1.86123691303562
23
-0.0329712137083535
33
1.19
70
1
  0
3DFACE
 8
[Color_005]
10
1.86123691303562
20
2.21702878629165
30
1.19
11
1.86123691303562
21
-0.0329712137083535
31
0.0
12
1.86123691303562
22
-0.0329712137083535
32
1.19
13
1.86123691303562
23
-0.0329712137083535
33
1.19
70
1
  0
3DFACE
 8
[Color_005]
10
1.86123691303562
20
-0.0329712137083535
30
0.0
11
1.86123691303562
21
2.21702878629165
31
1.19
12
1.86123691303562
22
2.21702878629165
32
0.0
13
1.86123691303562
23
2.21702878629165
33
0.0
70
1
  0
3DFACE
 8
[Color_005]
10
1.86123691303562
20
2.21702878629165
30
1.19
11
3.05123691303562
21
2.21702878629165
31
0.0
12
1.86123691303562
22
2.21702878629165
32
0.0
13
1.86123691303562
23
2.21702878629165
33
0.0
70
1
  0
3DFACE
 8
[Color_005]
10
3.05123691303562
20
2.21702878629165
30
0.0
11
1.86123691303562
21
2.21702878629165
31
1.19
12
3.05123691303562
22
2.21702878629165
32
1.19
13
3.05123691303562
23
2.21702878629165
33
1.19
70
1
  0
3DFACE
 8
[Color_005]
10
3.05123691303562
20
2.21702878629165
30
0.0
11
3.05123691303562
21
-0.0329712137083535
31
1.19
12
3.05123691303562
22
-0.0329712137083535
32
0.0
13
3.05123691303562
23
-0.0329712137083535
33
0.0
70
1
  0
3DFACE
 8
[Color_005]
10
3.05123691303562
20
-0.0329712137083535
30
1.19
11
3.05123691303562
21
2.21702878629165
31
0.0
12
3.05123691303562
22
2.21702878629165
32
1.19
13
3.05123691303562
23
2.21702878629165
33
1.19
70
1
  0
3DFACE
 8
[Color_C01]
10
4.77352315310637
20
0.0141976604540379
30
2.66
11
3.80352315310637
21
1.03419766045404
31
2.66
12
3.80352315310637
22
0.0141976604540379
32
2.66
13
3.80352315310637
23
0.0141976604540379
33
2.66
70
1
  0
3DFACE
 8
[Color_C01]
10
3.80352315310637
20
1.03419766045404
30
2.66
11
4.77352315310637
21
0.0141976604540379
31
2.66
12
4.77352315310637
22
1.03419766045404
32
2.66
13
4.77352315310637
23
1.03419766045404
33
2.66
70
1
  0
3DFACE
 8
[Color_C01]
10
3.80352315310637
20
1.03419766045404
30
2.66
11
3.80352315310637
21
0.0141976604540379
31
0.0
12
3.80352315310637
22
0.0141976604540379
32
2.66
13
3.80352315310637
23
0.0141976604540379
33
2.66
70
1
  0
3DFACE
 8
[Color_C01]
10
3.80352315310637
20
0.0141976604540379
30
0.0
11
3.80352315310637
21
1.03419766045404
31
2.66
12
3.80352315310637
22
1.03419766045404
32
0.0
13
3.80352315310637
23
1.03419766045404
33
0.0
70
1
  0
3DFACE
 8
[Color_C01]
10
3.80352315310637
20
1.03419766045404
30
2.66
11
4.77352315310637
21
1.03419766045404
31
0.0
12
3.80352315310637
22
1.03419766045404
32
0.0
13
3.80352315310637
23
1.03419766045404
33
0.0
70
1
  0
3DFACE
 8
[Color_C01]
10
4.77352315310637
20
1.03419766045404
30
0.0
11
3.80352315310637
21
1.03419766045404
31
2.66
12
4.77352315310637
22
1.03419766045404
32
2.66
13
4.77352315310637
23
1.03419766045404
33
2.66
70
1
  0
3DFACE
 8
[Color_C01]
10
4.77352315310637
20
1.03419766045404
30
0.0
11
4.77352315310637
21
0.0141976604540379
31
2.66
12
4.77352315310637
22
0.0141976604540379
32
0.0
13
4.77352315310637
23
0.0141976604540379
33
0.0
70
1
  0
3DFACE
 8
[Color_C01]
10
4.77352315310637
20
0.0141976604540379
30
2.66
11
4.77352315310637
21
1.03419766045404
31
0.0
12
4.77352315310637
22
1.03419766045404
32
2.66
13
4.77352315310637
23
1.03419766045404
33
2.66
70
1
  0
3DFACE
 8
[Color_C01]
10
4.77352315310637
20
0.0141976604540379
30
2.66
11
3.80352315310637
21
0.0141976604540379
31
0.0
12
4.77352315310637
22
0.0141976604540379
32
0.0
13
4.77352315310637
23
0.0141976604540379
33
0.0
70
1
  0
3DFACE
 8
[Color_C01]
10
3.80352315310637
20
0.0141976604540379
30
0.0
11
4.77352315310637
21
0.0141976604540379
31
2.66
12
3.80352315310637
22
0.0141976604540379
32
2.66
13
3.80352315310637
23
0.0141976604540379
33
2.66
70
1
  0
3DFACE
 8
[Color_C11]
10
6.69219730394509
20
-0.0752711990978761
30
2.74
11
5.80219730394509
21
1.12472880090212
31
2.74
12
5.80219730394509
22
-0.0752711990978761
32
2.74
13
5.80219730394509
23
-0.0752711990978761
33
2.74
70
1
  0
3DFACE
 8
[Color_C11]
10
5.80219730394509
20
1.12472880090212
30
2.74
11
6.69219730394509
21
-0.0752711990978761
31
2.74
12
6.69219730394509
22
1.12472880090212
32
2.74
13
6.69219730394509
23
1.12472880090212
33
2.74
70
1
  0
3DFACE
 8
[Color_C11]
10
6.69219730394509
20
1.12472880090212
30
0.0
11
6.69219730394509
21
-0.0752711990978761
31
2.74
12
6.69219730394509
22
-0.0752711990978761
32
0.0
13
6.69219730394509
23
-0.0752711990978761
33
0.0
70
1
  0
3DFACE
 8
[Color_C11]
10
6.69219730394509
20
-0.0752711990978761
30
2.74
11
6.69219730394509
21
1.12472880090212
31
0.0
12
6.69219730394509
22
1.12472880090212
32
2.74
13
6.69219730394509
23
1.12472880090212
33
2.74
70
1
  0
3DFACE
 8
[Color_C11]
10
6.69219730394509
20
-0.0752711990978761
30
2.74
11
5.80219730394509
21
-0.0752711990978761
31
0.0
12
6.69219730394509
22
-0.0752711990978761
32
0.0
13
6.69219730394509
23
-0.0752711990978761
33
0.0
70
1
  0
3DFACE
 8
[Color_C11]
10
5.80219730394509
20
-0.0752711990978761
30
0.0
11
6.69219730394509
21
-0.0752711990978761
31
2.74
12
5.80219730394509
22
-0.0752711990978761
32
2.74
13
5.80219730394509
23
-0.0752711990978761
33
2.74
70
1
  0
3DFACE
 8
[Color_C11]
10
5.80219730394509
20
1.12472880090212
30
2.74
11
5.80219730394509
21
-0.0752711990978761
31
0.0
12
5.80219730394509
22
-0.0752711990978761
32
2.74
13
5.80219730394509
23
-0.0752711990978761
33
2.74
70
1
  0
3DFACE
 8
[Color_C11]
10
5.80219730394509
20
-0.0752711990978761
30
0.0
11
5.80219730394509
21
1.12472880090212
31
2.74
12
5.80219730394509
22
1.12472880090212
32
0.0
13
5.80219730394509
23
1.12472880090212
33
0.0
70
1
  0
3DFACE
 8
[Color_C11]
10
5.80219730394509
20
1.12472880090212
30
2.74
11
6.69219730394509
21
1.12472880090212
31
0.0
12
5.80219730394509
22
1.12472880090212
32
0.0
13
5.80219730394509
23
1.12472880090212
33
0.0
70
1
  0
3DFACE
 8
[Color_C11]
10
6.69219730394509
20
1.12472880090212
30
0.0
11
5.80219730394509
21
1.12472880090212
31
2.74
12
6.69219730394509
22
1.12472880090212
32
2.74
13
6.69219730394509
23
1.12472880090212
33
2.74
70
1
  0
3DFACE
 8
[Color_C10]
10
4.66326040085395
20
2.82263810981787
30
3.81
11
2.48326040085395
21
3.98263810981787
31
3.81
12
2.48326040085395
22
2.82263810981787
32
3.81
13
2.48326040085395
23
2.82263810981787
33
3.81
70
1
  0
3DFACE
 8
[Color_C10]
10
2.48326040085395
20
3.98263810981787
30
3.81
11
4.66326040085395
21
2.82263810981787
31
3.81
12
4.66326040085395
22
3.98263810981787
32
3.81
13
4.66326040085395
23
3.98263810981787
33
3.81
70
1
  0
3DFACE
 8
[Color_C10]
10
4.66326040085395
20
3.98263810981787
30
0.0
11
4.66326040085395
21
2.82263810981787
31
3.81
12
4.66326040085395
22
2.82263810981787
32
0.0
13
4.66326040085395
23
2.82263810981787
33
0.0
70
1
  0
3DFACE
 8
[Color_C10]
10
4.66326040085395
20
2.82263810981787
30
3.81
11
4.66326040085395
21
3.98263810981787
31
0.0
12
4.66326040085395
22
3.98263810981787
32
3.81
13
4.66326040085395
23
3.98263810981787
33
3.81
70
1
  0
3DFACE
 8
[Color_C10]
10
4.66326040085395
20
2.82263810981787
30
3.81
11
2.48326040085395
21
2.82263810981787
31
0.0
12
4.66326040085395
22
2.82263810981787
32
0.0
13
4.66326040085395
23
2.82263810981787
33
0.0
70
1
  0
3DFACE
 8
[Color_C10]
10
2.48326040085395
20
2.82263810981787
30
0.0
11
4.66326040085395
21
2.82263810981787
31
3.81
12
2.48326040085395
22
2.82263810981787
32
3.81
13
2.48326040085395
23
2.82263810981787
33
3.81
70
1
  0
3DFACE
 8
[Color_C10]
10
2.48326040085395
20
3.98263810981787
30
3.81
11
2.48326040085395
21
2.82263810981787
31
0.0
12
2.48326040085395
22
2.82263810981787
32
3.81
13
2.48326040085395
23
2.82263810981787
33
3.81
70
1
  0
3DFACE
 8
[Color_C10]
10
2.48326040085395
20
2.82263810981787
30
0.0
11
2.48326040085395
21
3.98263810981787
31
3.81
12
2.48326040085395
22
3.98263810981787
32
0.0
13
2.48326040085395
23
3.98263810981787
33
0.0
70
1
  0
3DFACE
 8
[Color_C10]
10
2.48326040085395
20
3.98263810981787
30
3.81
11
4.66326040085395
21
3.98263810981787
31
0.0
12
2.48326040085395
22
3.98263810981787
32
0.0
13
2.48326040085395
23
3.98263810981787
33
0.0
70
1
  0
3DFACE
 8
[Color_C10]
10
4.66326040085395
20
3.98263810981787
30
0.0
11
2.48326040085395
21
3.98263810981787
31
3.81
12
4.66326040085395
22
3.98263810981787
32
3.81
13
4.66326040085395
23
3.98263810981787
33
3.81
70
1
  0
3DFACE
 8
[Color_C18]
10
7.14688725938327
20
2.38554572647879
30
3.89
11
5.19688725938328
21
3.71554572647879
31
3.89
12
5.19688725938328
22
2.38554572647879
32
3.89
13
5.19688725938328
23
2.38554572647879
33
3.89
70
1
  0
3DFACE
 8
[Color_C18]
10
5.19688725938328
20
3.71554572647879
30
3.89
11
7.14688725938327
21
2.38554572647879
31
3.89
12
7.14688725938327
22
3.71554572647879
32
3.89
13
7.14688725938327
23
3.71554572647879
33
3.89
70
1
  0
3DFACE
 8
[Color_C18]
10
5.19688725938328
20
3.71554572647879
30
3.89
11
7.14688725938327
21
3.71554572647879
31
0.0
12
5.19688725938328
22
3.71554572647879
32
0.0
13
5.19688725938328
23
3.71554572647879
33
0.0
70
1
  0
3DFACE
 8
[Color_C18]
10
7.14688725938327
20
3.71554572647879
30
0.0
11
5.19688725938328
21
3.71554572647879
31
3.89
12
7.14688725938327
22
3.71554572647879
32
3.89
13
7.14688725938327
23
3.71554572647879
33
3.89
70
1
  0
3DFACE
 8
[Color_C18]
10
7.14688725938327
20
3.71554572647879
30
0.0
11
7.14688725938327
21
2.38554572647879
31
3.89
12
7.14688725938327
22
2.38554572647879
32
0.0
13
7.14688725938327
23
2.38554572647879
33
0.0
70
1
  0
3DFACE
 8
[Color_C18]
10
7.14688725938327
20
2.38554572647879
30
3.89
11
7.14688725938327
21
3.71554572647879
31
0.0
12
7.14688725938327
22
3.71554572647879
32
3.89
13
7.14688725938327
23
3.71554572647879
33
3.89
70
1
  0
3DFACE
 8
[Color_C18]
10
7.14688725938327
20
2.38554572647879
30
3.89
11
5.19688725938328
21
2.38554572647879
31
0.0
12
7.14688725938327
22
2.38554572647879
32
0.0
13
7.14688725938327
23
2.38554572647879
33
0.0
70
1
  0
3DFACE
 8
[Color_C18]
10
5.19688725938328
20
2.38554572647879
30
0.0
11
7.14688725938327
21
2.38554572647879
31
3.89
12
5.19688725938328
22
2.38554572647879
32
3.89
13
5.19688725938328
23
2.38554572647879
33
3.89
70
1
  0
3DFACE
 8
[Color_C18]
10
5.19688725938328
20
3.71554572647879
30
3.89
11
5.19688725938328
21
2.38554572647879
31
0.0
12
5.19688725938328
22
2.38554572647879
32
3.89
13
5.19688725938328
23
2.38554572647879
33
3.89
70
1
  0
3DFACE
 8
[Color_C18]
10
5.19688725938328
20
2.38554572647879
30
0.0
11
5.19688725938328
21
3.71554572647879
31
3.89
12
5.19688725938328
22
3.71554572647879
32
0.0
13
5.19688725938328
23
3.71554572647879
33
0.0
70
1
  0
3DFACE
 8
[Color_D01]
10
9.77784575705593
20
0.137383785823489
30
1.12
11
8.09784575705593
21
1.93738378582349
31
1.12
12
8.09784575705593
22
0.137383785823489
32
1.12
13
8.09784575705593
23
0.137383785823489
33
1.12
70
1
  0
3DFACE
 8
[Color_D01]
10
8.09784575705593
20
1.93738378582349
30
1.12
11
9.77784575705593
21
0.137383785823489
31
1.12
12
9.77784575705593
22
1.93738378582349
32
1.12
13
9.77784575705593
23
1.93738378582349
33
1.12
70
1
  0
3DFACE
 8
[Color_D01]
10
8.09784575705593
20
1.93738378582349
30
1.12
11
8.09784575705593
21
0.137383785823489
31
0.0
12
8.09784575705593
22
0.137383785823489
32
1.12
13
8.09784575705593
23
0.137383785823489
33
1.12
70
1
  0
3DFACE
 8
[Color_D01]
10
8.09784575705593
20
0.137383785823489
30
0.0
11
8.09784575705593
21
1.93738378582349
31
1.12
12
8.09784575705593
22
1.93738378582349
32
0.0
13
8.09784575705593
23
1.93738378582349
33
0.0
70
1
  0
3DFACE
 8
[Color_D01]
10
8.09784575705593
20
1.93738378582349
30
1.12
11
9.77784575705593
21
1.93738378582349
31
0.0
12
8.09784575705593
22
1.93738378582349
32
0.0
13
8.09784575705593
23
1.93738378582349
33
0.0
70
1
  0
3DFACE
 8
[Color_D01]
10
9.77784575705593
20
1.93738378582349
30
0.0
11
8.09784575705593
21
1.93738378582349
31
1.12
12
9.77784575705593
22
1.93738378582349
32
1.12
13
9.77784575705593
23
1.93738378582349
33
1.12
70
1
  0
3DFACE
 8
[Color_D01]
10
9.77784575705593
20
1.93738378582349
30
0.0
11
9.77784575705593
21
0.137383785823489
31
1.12
12
9.77784575705593
22
0.137383785823489
32
0.0
13
9.77784575705593
23
0.137383785823489
33
0.0
70
1
  0
3DFACE
 8
[Color_D01]
10
9.77784575705593
20
0.137383785823489
30
1.12
11
9.77784575705593
21
1.93738378582349
31
0.0
12
9.77784575705593
22
1.93738378582349
32
1.12
13
9.77784575705593
23
1.93738378582349
33
1.12
70
1
  0
3DFACE
 8
[Color_D01]
10
9.77784575705593
20
0.137383785823489
30
1.12
11
8.09784575705593
21
0.137383785823489
31
0.0
12
9.77784575705593
22
0.137383785823489
32
0.0
13
9.77784575705593
23
0.137383785823489
33
0.0
70
1
  0
3DFACE
 8
[Color_D01]
10
8.09784575705593
20
0.137383785823489
30
0.0
11
9.77784575705593
21
0.137383785823489
31
1.12
12
8.09784575705593
22
0.137383785823489
32
1.12
13
8.09784575705593
23
0.137383785823489
33
1.12
70
1
 0
ENDSEC
 0
EOF
