 0
SECTION
 2
ENTITIES
  0
3DFACE
 8
Layer0
10
0.0
20
1.50793423728653
30
1.93322234889577
11
0.0
21
0.727934237286528
31
1.67322234889577
12
0.0
22
0.119043799340059
32
2.82399917357234
13
0.0
23
0.119043799340059
33
2.82399917357234
70
3
  0
3DFACE
 8
Layer0
10
0.0
20
0.727934237286528
30
1.67322234889577
11
0.0
21
1.50793423728653
31
1.93322234889577
12
0.0
22
1.50793423728653
32
1.67322234889577
13
0.0
23
1.50793423728653
33
1.67322234889577
70
1
  0
3DFACE
 8
Layer0
10
0.0
20
0.98904182126129
30
1.12645784756321
11
0.0
21
0.727934237286528
31
0.939203714370485
12
0.0
22
0.727934237286528
32
1.44322234889577
13
0.0
23
0.727934237286528
33
1.44322234889577
70
3
  0
3DFACE
 8
Layer0
10
0.0
20
0.727934237286528
30
0.939203714370485
11
0.0
21
0.98904182126129
31
1.12645784756321
12
0.0
22
0.84904182126129
32
0.986457847563212
13
0.0
23
0.84904182126129
33
0.986457847563212
70
3
  0
3DFACE
 8
Layer0
10
0.0
20
0.84904182126129
30
0.986457847563212
11
0.0
21
0.98904182126129
31
1.12645784756321
12
0.0
22
0.98904182126129
32
0.986457847563212
13
0.0
23
0.98904182126129
33
0.986457847563212
70
1
  0
3DFACE
 8
Layer0
10
0.0
20
0.119043799340059
30
3.41399917357234
11
0.0
21
0.0
31
0.0179152174575008
12
0.0
22
-0.000956200659941092
32
3.41399917357234
13
0.0
23
-0.000956200659941092
33
3.41399917357234
70
1
  0
3DFACE
 8
Layer0
10
0.0
20
0.0
30
0.0179152174575008
11
0.0
21
0.119043799340059
31
3.41399917357234
12
0.0
22
0.119043799340059
32
2.82399917357234
13
0.0
23
0.119043799340059
33
2.82399917357234
70
13
  0
3DFACE
 8
Layer0
10
0.0
20
0.0
30
0.0179152174575008
11
0.0
21
0.119043799340059
31
2.82399917357234
12
0.0
22
0.727934237286528
32
0.939203714370485
13
0.0
23
0.727934237286528
33
0.939203714370485
70
15
  0
3DFACE
 8
Layer0
10
0.0
20
0.0
30
0.0179152174575008
11
0.0
21
0.727934237286528
31
0.939203714370485
12
0.0
22
1.98
32
0.0179152174575008
13
0.0
23
1.98
33
0.0179152174575008
70
3
  0
3DFACE
 8
Layer0
10
0.0
20
0.727934237286528
30
0.939203714370485
11
0.0
21
0.119043799340059
31
2.82399917357234
12
0.0
22
0.727934237286528
32
1.67322234889577
13
0.0
23
0.727934237286528
33
1.67322234889577
70
15
  0
3DFACE
 8
Layer0
10
0.0
20
0.727934237286528
30
0.939203714370485
11
0.0
21
0.727934237286528
31
1.67322234889577
12
0.0
22
0.727934237286528
32
1.44322234889577
13
0.0
23
0.727934237286528
33
1.44322234889577
70
13
  0
3DFACE
 8
Layer0
10
0.0
20
1.98
30
0.0179152174575008
11
0.0
21
0.727934237286528
31
0.939203714370485
12
0.0
22
1.98
32
0.227915217457501
13
0.0
23
1.98
33
0.227915217457501
70
1
  0
3DFACE
 8
Layer0
10
4.8
20
0.0
30
0.0179152174575008
11
4.8
21
0.119043799340059
31
3.41399917357234
12
4.8
22
-0.000956200659941092
32
3.41399917357234
13
4.8
23
-0.000956200659941092
33
3.41399917357234
70
1
  0
3DFACE
 8
Layer0
10
4.8
20
0.119043799340059
30
3.41399917357234
11
4.8
21
0.0
31
0.0179152174575008
12
4.8
22
0.119043799340059
32
2.82399917357234
13
4.8
23
0.119043799340059
33
2.82399917357234
70
3
  0
3DFACE
 8
Layer0
10
4.8
20
0.0
30
0.0179152174575008
11
4.8
21
0.727934237286528
31
0.939203714370485
12
4.8
22
0.119043799340059
32
2.82399917357234
13
4.8
23
0.119043799340059
33
2.82399917357234
70
15
  0
3DFACE
 8
Layer0
10
4.8
20
0.727934237286528
30
0.939203714370485
11
4.8
21
0.0
31
0.0179152174575008
12
4.8
22
1.98
32
0.0179152174575008
13
4.8
23
1.98
33
0.0179152174575008
70
13
  0
3DFACE
 8
Layer0
10
4.8
20
0.727934237286528
30
0.939203714370485
11
4.8
21
1.98
31
0.0179152174575008
12
4.8
22
1.98
32
0.227915217457501
13
4.8
23
1.98
33
0.227915217457501
70
1
  0
3DFACE
 8
Layer0
10
4.8
20
0.84904182126129
30
0.986457847563212
11
4.8
21
0.727934237286528
31
1.44322234889577
12
4.8
22
0.727934237286528
32
0.939203714370485
13
4.8
23
0.727934237286528
33
0.939203714370485
70
3
  0
3DFACE
 8
Layer0
10
4.8
20
0.727934237286528
30
1.44322234889577
11
4.8
21
0.84904182126129
31
0.986457847563212
12
4.8
22
0.98904182126129
32
1.12645784756321
13
4.8
23
0.98904182126129
33
1.12645784756321
70
3
  0
3DFACE
 8
Layer0
10
4.8
20
0.98904182126129
30
1.12645784756321
11
4.8
21
0.84904182126129
31
0.986457847563212
12
4.8
22
0.98904182126129
32
0.986457847563212
13
4.8
23
0.98904182126129
33
0.986457847563212
70
1
  0
3DFACE
 8
Layer0
10
4.8
20
0.119043799340059
30
2.82399917357234
11
4.8
21
0.727934237286528
31
1.67322234889577
12
4.8
22
1.50793423728653
32
1.93322234889577
13
4.8
23
1.50793423728653
33
1.93322234889577
70
3
  0
3DFACE
 8
Layer0
10
4.8
20
0.727934237286528
30
1.67322234889577
11
4.8
21
0.119043799340059
31
2.82399917357234
12
4.8
22
0.727934237286528
32
0.939203714370485
13
4.8
23
0.727934237286528
33
0.939203714370485
70
15
  0
3DFACE
 8
Layer0
10
4.8
20
0.727934237286528
30
1.67322234889577
11
4.8
21
0.727934237286528
31
0.939203714370485
12
4.8
22
0.727934237286528
32
1.44322234889577
13
4.8
23
0.727934237286528
33
1.44322234889577
70
3
  0
3DFACE
 8
Layer0
10
4.8
20
1.50793423728653
30
1.93322234889577
11
4.8
21
0.727934237286528
31
1.67322234889577
12
4.8
22
1.50793423728653
32
1.67322234889577
13
4.8
23
1.50793423728653
33
1.67322234889577
70
1
  0
3DFACE
 8
Layer0
10
4.8
20
-0.000956200659941092
30
3.41399917357234
11
0.0
21
0.0
31
0.0179152174575008
12
4.8
22
0.0
32
0.0179152174575008
13
4.8
23
0.0
33
0.0179152174575008
70
1
  0
3DFACE
 8
Layer0
10
0.0
20
0.0
30
0.0179152174575008
11
4.8
21
-0.000956200659941092
31
3.41399917357234
12
0.0
22
-0.000956200659941092
32
3.41399917357234
13
0.0
23
-0.000956200659941092
33
3.41399917357234
70
1
  0
3DFACE
 8
Layer0
10
4.8
20
1.98
30
0.0179152174575008
11
0.0
21
0.0
31
0.0179152174575008
12
0.0
22
1.98
32
0.0179152174575008
13
0.0
23
1.98
33
0.0179152174575008
70
1
  0
3DFACE
 8
Layer0
10
0.0
20
0.0
30
0.0179152174575008
11
4.8
21
1.98
31
0.0179152174575008
12
4.8
22
0.0
32
0.0179152174575008
13
4.8
23
0.0
33
0.0179152174575008
70
1
  0
3DFACE
 8
Layer0
10
0.0
20
1.98
30
0.227915217457501
11
4.8
21
1.98
31
0.0179152174575008
12
0.0
22
1.98
32
0.0179152174575008
13
0.0
23
1.98
33
0.0179152174575008
70
1
  0
3DFACE
 8
Layer0
10
4.8
20
1.98
30
0.0179152174575008
11
0.0
21
1.98
31
0.227915217457501
12
4.8
22
1.98
32
0.227915217457501
13
4.8
23
1.98
33
0.227915217457501
70
1
  0
3DFACE
 8
Layer0
10
4.8
20
0.727934237286528
30
0.939203714370485
11
0.0
21
1.98
31
0.227915217457501
12
0.0
22
0.727934237286528
32
0.939203714370485
13
0.0
23
0.727934237286528
33
0.939203714370485
70
1
  0
3DFACE
 8
Layer0
10
0.0
20
1.98
30
0.227915217457501
11
4.8
21
0.727934237286528
31
0.939203714370485
12
4.8
22
1.98
32
0.227915217457501
13
4.8
23
1.98
33
0.227915217457501
70
1
  0
3DFACE
 8
Layer0
10
4.8
20
0.84904182126129
30
0.986457847563212
11
0.0
21
0.727934237286528
31
0.939203714370485
12
0.0
22
0.84904182126129
32
0.986457847563212
13
0.0
23
0.84904182126129
33
0.986457847563212
70
1
  0
3DFACE
 8
Layer0
10
0.0
20
0.727934237286528
30
0.939203714370485
11
4.8
21
0.84904182126129
31
0.986457847563212
12
4.8
22
0.727934237286528
32
0.939203714370485
13
4.8
23
0.727934237286528
33
0.939203714370485
70
1
  0
3DFACE
 8
Layer0
10
4.8
20
0.98904182126129
30
0.986457847563212
11
0.0
21
0.84904182126129
31
0.986457847563212
12
0.0
22
0.98904182126129
32
0.986457847563212
13
0.0
23
0.98904182126129
33
0.986457847563212
70
1
  0
3DFACE
 8
Layer0
10
0.0
20
0.84904182126129
30
0.986457847563212
11
4.8
21
0.98904182126129
31
0.986457847563212
12
4.8
22
0.84904182126129
32
0.986457847563212
13
4.8
23
0.84904182126129
33
0.986457847563212
70
1
  0
3DFACE
 8
Layer0
10
0.0
20
0.98904182126129
30
1.12645784756321
11
4.8
21
0.98904182126129
31
0.986457847563212
12
0.0
22
0.98904182126129
32
0.986457847563212
13
0.0
23
0.98904182126129
33
0.986457847563212
70
1
  0
3DFACE
 8
Layer0
10
4.8
20
0.98904182126129
30
0.986457847563212
11
0.0
21
0.98904182126129
31
1.12645784756321
12
4.8
22
0.98904182126129
32
1.12645784756321
13
4.8
23
0.98904182126129
33
1.12645784756321
70
1
  0
3DFACE
 8
Layer0
10
0.0
20
0.727934237286528
30
1.44322234889577
11
4.8
21
0.98904182126129
31
1.12645784756321
12
0.0
22
0.98904182126129
32
1.12645784756321
13
0.0
23
0.98904182126129
33
1.12645784756321
70
1
  0
3DFACE
 8
Layer0
10
4.8
20
0.98904182126129
30
1.12645784756321
11
0.0
21
0.727934237286528
31
1.44322234889577
12
4.8
22
0.727934237286528
32
1.44322234889577
13
4.8
23
0.727934237286528
33
1.44322234889577
70
1
  0
3DFACE
 8
Layer0
10
0.0
20
0.727934237286528
30
1.67322234889577
11
4.8
21
0.727934237286528
31
1.44322234889577
12
0.0
22
0.727934237286528
32
1.44322234889577
13
0.0
23
0.727934237286528
33
1.44322234889577
70
1
  0
3DFACE
 8
Layer0
10
4.8
20
0.727934237286528
30
1.44322234889577
11
0.0
21
0.727934237286528
31
1.67322234889577
12
4.8
22
0.727934237286528
32
1.67322234889577
13
4.8
23
0.727934237286528
33
1.67322234889577
70
1
  0
3DFACE
 8
Layer0
10
4.8
20
1.50793423728653
30
1.67322234889577
11
0.0
21
0.727934237286528
31
1.67322234889577
12
0.0
22
1.50793423728653
32
1.67322234889577
13
0.0
23
1.50793423728653
33
1.67322234889577
70
1
  0
3DFACE
 8
Layer0
10
0.0
20
0.727934237286528
30
1.67322234889577
11
4.8
21
1.50793423728653
31
1.67322234889577
12
4.8
22
0.727934237286528
32
1.67322234889577
13
4.8
23
0.727934237286528
33
1.67322234889577
70
1
  0
3DFACE
 8
Layer0
10
0.0
20
1.50793423728653
30
1.93322234889577
11
4.8
21
1.50793423728653
31
1.67322234889577
12
0.0
22
1.50793423728653
32
1.67322234889577
13
0.0
23
1.50793423728653
33
1.67322234889577
70
1
  0
3DFACE
 8
Layer0
10
4.8
20
1.50793423728653
30
1.67322234889577
11
0.0
21
1.50793423728653
31
1.93322234889577
12
4.8
22
1.50793423728653
32
1.93322234889577
13
4.8
23
1.50793423728653
33
1.93322234889577
70
1
  0
3DFACE
 8
Layer0
10
4.8
20
0.119043799340059
30
2.82399917357234
11
0.0
21
1.50793423728653
31
1.93322234889577
12
0.0
22
0.119043799340059
32
2.82399917357234
13
0.0
23
0.119043799340059
33
2.82399917357234
70
1
  0
3DFACE
 8
Layer0
10
0.0
20
1.50793423728653
30
1.93322234889577
11
4.8
21
0.119043799340059
31
2.82399917357234
12
4.8
22
1.50793423728653
32
1.93322234889577
13
4.8
23
1.50793423728653
33
1.93322234889577
70
1
  0
3DFACE
 8
Layer0
10
0.0
20
0.119043799340059
30
3.41399917357234
11
4.8
21
0.119043799340059
31
2.82399917357234
12
0.0
22
0.119043799340059
32
2.82399917357234
13
0.0
23
0.119043799340059
33
2.82399917357234
70
1
  0
3DFACE
 8
Layer0
10
4.8
20
0.119043799340059
30
2.82399917357234
11
0.0
21
0.119043799340059
31
3.41399917357234
12
4.8
22
0.119043799340059
32
3.41399917357234
13
4.8
23
0.119043799340059
33
3.41399917357234
70
1
  0
3DFACE
 8
Layer0
10
4.8
20
-0.000956200659941092
30
3.41399917357234
11
0.0
21
0.119043799340059
31
3.41399917357234
12
0.0
22
-0.000956200659941092
32
3.41399917357234
13
0.0
23
-0.000956200659941092
33
3.41399917357234
70
1
  0
3DFACE
 8
Layer0
10
0.0
20
0.119043799340059
30
3.41399917357234
11
4.8
21
-0.000956200659941092
31
3.41399917357234
12
4.8
22
0.119043799340059
32
3.41399917357234
13
4.8
23
0.119043799340059
33
3.41399917357234
70
1
 0
ENDSEC
 0
EOF
